<svg width="172" height="48" viewBox="0 0 172 48" fill="none" xmlns="http://www.w3.org/2000/svg">
<path d="M31.74 18.48L25.22 39H21.26C20.8067 39 20.4933 38.7067 20.32 38.12L16.64 26.26C16.52 25.86 16.4067 25.4667 16.3 25.08C16.2067 24.68 16.1267 24.28 16.06 23.88C15.98 24.28 15.8867 24.6867 15.78 25.1C15.6867 25.5 15.58 25.9 15.46 26.3L11.72 38.12C11.56 38.7067 11.2067 39 10.66 39H6.86L0.36 18.48H4.3C4.66 18.48 4.96667 18.5667 5.22 18.74C5.47333 18.9133 5.64 19.1333 5.72 19.4L8.66 30.36C8.80667 30.96 8.93333 31.5467 9.04 32.12C9.16 32.6933 9.26 33.2667 9.34 33.84C9.48667 33.2667 9.64 32.6933 9.8 32.12C9.97333 31.5467 10.1533 30.96 10.34 30.36L13.74 19.36C13.82 19.0933 13.9733 18.8733 14.2 18.7C14.44 18.5267 14.7267 18.44 15.06 18.44H17.24C17.5867 18.44 17.88 18.5267 18.12 18.7C18.3733 18.8733 18.54 19.0933 18.62 19.36L21.92 30.36C22.0933 30.96 22.2533 31.5533 22.4 32.14C22.56 32.7133 22.7133 33.2867 22.86 33.86C23.0333 32.7267 23.28 31.56 23.6 30.36L26.62 19.4C26.7133 19.1333 26.88 18.9133 27.12 18.74C27.36 18.5667 27.6467 18.48 27.98 18.48H31.74ZM47.4178 26.38C47.4178 25.74 47.3245 25.14 47.1378 24.58C46.9645 24.0067 46.6978 23.5067 46.3378 23.08C45.9778 22.6533 45.5178 22.32 44.9578 22.08C44.4111 21.8267 43.7711 21.7 43.0378 21.7C41.6111 21.7 40.4845 22.1067 39.6578 22.92C38.8445 23.7333 38.3245 24.8867 38.0978 26.38H47.4178ZM37.9978 29.36C38.0778 30.4133 38.2645 31.3267 38.5578 32.1C38.8511 32.86 39.2378 33.4933 39.7178 34C40.1978 34.4933 40.7645 34.8667 41.4178 35.12C42.0845 35.36 42.8178 35.48 43.6178 35.48C44.4178 35.48 45.1045 35.3867 45.6778 35.2C46.2645 35.0133 46.7711 34.8067 47.1978 34.58C47.6378 34.3533 48.0178 34.1467 48.3378 33.96C48.6711 33.7733 48.9911 33.68 49.2978 33.68C49.7111 33.68 50.0178 33.8333 50.2178 34.14L51.6378 35.94C51.0911 36.58 50.4778 37.12 49.7978 37.56C49.1178 37.9867 48.4045 38.3333 47.6578 38.6C46.9245 38.8533 46.1711 39.0333 45.3978 39.14C44.6378 39.2467 43.8978 39.3 43.1778 39.3C41.7511 39.3 40.4245 39.0667 39.1978 38.6C37.9711 38.12 36.9045 37.42 35.9978 36.5C35.0911 35.5667 34.3778 34.42 33.8578 33.06C33.3378 31.6867 33.0778 30.1 33.0778 28.3C33.0778 26.9 33.3045 25.5867 33.7578 24.36C34.2111 23.12 34.8578 22.0467 35.6978 21.14C36.5511 20.22 37.5845 19.4933 38.7978 18.96C40.0245 18.4267 41.4045 18.16 42.9378 18.16C44.2311 18.16 45.4245 18.3667 46.5178 18.78C47.6111 19.1933 48.5511 19.8 49.3378 20.6C50.1245 21.3867 50.7378 22.36 51.1778 23.52C51.6311 24.6667 51.8578 25.98 51.8578 27.46C51.8578 28.2067 51.7778 28.7133 51.6178 28.98C51.4578 29.2333 51.1511 29.36 50.6978 29.36H37.9978ZM60.505 33.68C61.065 34.36 61.6717 34.84 62.325 35.12C62.9917 35.4 63.6917 35.54 64.425 35.54C65.185 35.54 65.865 35.4067 66.465 35.14C67.0783 34.86 67.5983 34.4333 68.025 33.86C68.4517 33.2733 68.7783 32.5333 69.005 31.64C69.2317 30.7333 69.345 29.6533 69.345 28.4C69.345 26.1467 68.9717 24.52 68.225 23.52C67.4783 22.5067 66.405 22 65.005 22C64.0583 22 63.2317 22.22 62.525 22.66C61.8183 23.0867 61.145 23.6933 60.505 24.48V33.68ZM60.505 21C61.3317 20.1333 62.245 19.4467 63.245 18.94C64.2583 18.42 65.4117 18.16 66.705 18.16C67.8917 18.16 68.9583 18.3933 69.905 18.86C70.865 19.3267 71.6783 20 72.345 20.88C73.025 21.7467 73.545 22.8 73.905 24.04C74.265 25.28 74.445 26.6733 74.445 28.22C74.445 29.8867 74.2383 31.4 73.825 32.76C73.4117 34.12 72.8183 35.2867 72.045 36.26C71.285 37.22 70.365 37.9667 69.285 38.5C68.205 39.0333 67.005 39.3 65.685 39.3C65.045 39.3 64.465 39.2333 63.945 39.1C63.425 38.98 62.945 38.8067 62.505 38.58C62.065 38.3533 61.6583 38.08 61.285 37.76C60.925 37.4267 60.5783 37.06 60.245 36.66L60.025 38.04C59.945 38.3867 59.805 38.6333 59.605 38.78C59.4183 38.9267 59.1583 39 58.825 39H55.565V9.28H60.505V21ZM84.8269 39.32C83.0402 39.32 81.6669 38.82 80.7069 37.82C79.7602 36.8067 79.2869 35.4133 79.2869 33.64V22.18H77.1869C76.9202 22.18 76.6935 22.0933 76.5069 21.92C76.3202 21.7467 76.2269 21.4867 76.2269 21.14V19.18L79.5269 18.64L80.5669 13.04C80.6335 12.7733 80.7602 12.5667 80.9469 12.42C81.1335 12.2733 81.3735 12.2 81.6669 12.2H84.2269V18.66H89.7069V22.18H84.2269V33.3C84.2269 33.94 84.3802 34.44 84.6869 34.8C85.0069 35.16 85.4402 35.34 85.9869 35.34C86.2935 35.34 86.5469 35.3067 86.7469 35.24C86.9602 35.16 87.1402 35.08 87.2869 35C87.4469 34.92 87.5869 34.8467 87.7069 34.78C87.8269 34.7 87.9469 34.66 88.0669 34.66C88.2135 34.66 88.3335 34.7 88.4269 34.78C88.5202 34.8467 88.6202 34.9533 88.7269 35.1L90.2069 37.5C89.4869 38.1 88.6602 38.5533 87.7269 38.86C86.7935 39.1667 85.8269 39.32 84.8269 39.32ZM97.5297 22.04C98.1697 20.8133 98.9297 19.8533 99.8097 19.16C100.69 18.4533 101.73 18.1 102.93 18.1C103.876 18.1 104.636 18.3067 105.21 18.72L104.89 22.42C104.823 22.66 104.723 22.8333 104.59 22.94C104.47 23.0333 104.303 23.08 104.09 23.08C103.89 23.08 103.59 23.0467 103.19 22.98C102.803 22.9133 102.423 22.88 102.05 22.88C101.503 22.88 101.016 22.96 100.59 23.12C100.163 23.28 99.7764 23.5133 99.4297 23.82C99.0964 24.1133 98.7964 24.4733 98.5297 24.9C98.2764 25.3267 98.0364 25.8133 97.8097 26.36V39H92.8697V18.48H95.7697C96.2764 18.48 96.6297 18.5733 96.8297 18.76C97.0297 18.9333 97.163 19.2533 97.2297 19.72L97.5297 22.04ZM125.472 18.48V39H122.452C121.798 39 121.385 38.7 121.212 38.1L120.872 36.46C120.032 37.3133 119.105 38.0067 118.092 38.54C117.078 39.06 115.885 39.32 114.512 39.32C113.392 39.32 112.398 39.1333 111.532 38.76C110.678 38.3733 109.958 37.8333 109.372 37.14C108.785 36.4467 108.338 35.6267 108.032 34.68C107.738 33.72 107.592 32.6667 107.592 31.52V18.48H112.532V31.52C112.532 32.7733 112.818 33.7467 113.392 34.44C113.978 35.12 114.852 35.46 116.012 35.46C116.865 35.46 117.665 35.2733 118.412 34.9C119.158 34.5133 119.865 33.9867 120.532 33.32V18.48H125.472ZM134.99 21C135.403 20.5867 135.836 20.2067 136.29 19.86C136.756 19.5 137.243 19.2 137.75 18.96C138.27 18.7067 138.823 18.5133 139.41 18.38C139.996 18.2333 140.636 18.16 141.33 18.16C142.45 18.16 143.443 18.3533 144.31 18.74C145.176 19.1133 145.896 19.6467 146.47 20.34C147.056 21.02 147.496 21.84 147.79 22.8C148.096 23.7467 148.25 24.7933 148.25 25.94V39H143.31V25.94C143.31 24.6867 143.023 23.72 142.45 23.04C141.876 22.3467 141.003 22 139.83 22C138.976 22 138.176 22.1933 137.43 22.58C136.683 22.9667 135.976 23.4933 135.31 24.16V39H130.37V18.48H133.39C134.03 18.48 134.45 18.78 134.65 19.38L134.99 21ZM157.888 9.28V26.3H158.808C159.141 26.3 159.401 26.26 159.588 26.18C159.788 26.0867 159.988 25.9067 160.188 25.64L165.288 19.34C165.501 19.06 165.734 18.8467 165.988 18.7C166.254 18.5533 166.594 18.48 167.008 18.48H171.528L165.148 26.1C164.694 26.7 164.201 27.16 163.668 27.48C163.948 27.68 164.194 27.9133 164.408 28.18C164.634 28.4467 164.848 28.7333 165.048 29.04L171.888 39H167.428C167.041 39 166.708 38.94 166.428 38.82C166.148 38.6867 165.914 38.4533 165.728 38.12L160.488 30.34C160.301 30.0333 160.108 29.8333 159.908 29.74C159.708 29.6467 159.408 29.6 159.008 29.6H157.888V39H152.948V9.28H157.888Z" fill="black"/>
</svg>
