<svg width="203" height="36" viewBox="0 0 203 36" fill="none" xmlns="http://www.w3.org/2000/svg">
<path d="M22.9239 18.4884L17.5239 13.0814L19.9626 10.6395C20.3574 10.2442 20.8452 10.0465 21.4258 10.0465C22.0065 10.0465 22.4942 10.2442 22.889 10.6395L25.3626 13.1163C25.7574 13.5116 25.9548 14 25.9548 14.5814C25.9548 15.1628 25.7574 15.6512 25.3626 16.0465L22.9239 18.4884ZM0.940645 35.093V29.6512L7.69935 22.8837L0 15.1395L6.06194 9L13.831 16.7791L17.5239 13.0814L22.9239 18.4884L19.231 22.186L27 29.9651L20.9032 36L13.169 28.2907L6.37548 35.093H0.940645ZM9.19742 21.3837L12.3329 18.2442L9.78968 15.6977L8.11742 17.3721L6.65419 15.907L8.32645 14.2326L6.09677 12L2.96129 15.1395L9.19742 21.3837ZM20.8335 33.0698L23.969 29.9302L21.7394 27.6977L20.0671 29.3721L18.6039 27.907L20.2761 26.2326L17.7329 23.686L14.5974 26.8256L20.8335 33.0698ZM3.03097 33H5.46968L19.9277 18.5233L17.489 16.0814L3.03097 30.5581V33Z" fill="black"/>
<path d="M62.74 12.48L56.22 33H52.26C51.8067 33 51.4933 32.7067 51.32 32.12L47.64 20.26C47.52 19.86 47.4067 19.4667 47.3 19.08C47.2067 18.68 47.1267 18.28 47.06 17.88C46.98 18.28 46.8867 18.6867 46.78 19.1C46.6867 19.5 46.58 19.9 46.46 20.3L42.72 32.12C42.56 32.7067 42.2067 33 41.66 33H37.86L31.36 12.48H35.3C35.66 12.48 35.9667 12.5667 36.22 12.74C36.4733 12.9133 36.64 13.1333 36.72 13.4L39.66 24.36C39.8067 24.96 39.9333 25.5467 40.04 26.12C40.16 26.6933 40.26 27.2667 40.34 27.84C40.4867 27.2667 40.64 26.6933 40.8 26.12C40.9733 25.5467 41.1533 24.96 41.34 24.36L44.74 13.36C44.82 13.0933 44.9733 12.8733 45.2 12.7C45.44 12.5267 45.7267 12.44 46.06 12.44H48.24C48.5867 12.44 48.88 12.5267 49.12 12.7C49.3733 12.8733 49.54 13.0933 49.62 13.36L52.92 24.36C53.0933 24.96 53.2533 25.5533 53.4 26.14C53.56 26.7133 53.7133 27.2867 53.86 27.86C54.0333 26.7267 54.28 25.56 54.6 24.36L57.62 13.4C57.7133 13.1333 57.88 12.9133 58.12 12.74C58.36 12.5667 58.6467 12.48 58.98 12.48H62.74ZM78.4178 20.38C78.4178 19.74 78.3245 19.14 78.1378 18.58C77.9645 18.0067 77.6978 17.5067 77.3378 17.08C76.9778 16.6533 76.5178 16.32 75.9578 16.08C75.4111 15.8267 74.7711 15.7 74.0378 15.7C72.6111 15.7 71.4845 16.1067 70.6578 16.92C69.8445 17.7333 69.3245 18.8867 69.0978 20.38H78.4178ZM68.9978 23.36C69.0778 24.4133 69.2645 25.3267 69.5578 26.1C69.8511 26.86 70.2378 27.4933 70.7178 28C71.1978 28.4933 71.7645 28.8667 72.4178 29.12C73.0845 29.36 73.8178 29.48 74.6178 29.48C75.4178 29.48 76.1045 29.3867 76.6778 29.2C77.2645 29.0133 77.7711 28.8067 78.1978 28.58C78.6378 28.3533 79.0178 28.1467 79.3378 27.96C79.6711 27.7733 79.9911 27.68 80.2978 27.68C80.7111 27.68 81.0178 27.8333 81.2178 28.14L82.6378 29.94C82.0911 30.58 81.4778 31.12 80.7978 31.56C80.1178 31.9867 79.4045 32.3333 78.6578 32.6C77.9245 32.8533 77.1711 33.0333 76.3978 33.14C75.6378 33.2467 74.8978 33.3 74.1778 33.3C72.7511 33.3 71.4245 33.0667 70.1978 32.6C68.9711 32.12 67.9045 31.42 66.9978 30.5C66.0911 29.5667 65.3778 28.42 64.8578 27.06C64.3378 25.6867 64.0778 24.1 64.0778 22.3C64.0778 20.9 64.3045 19.5867 64.7578 18.36C65.2111 17.12 65.8578 16.0467 66.6978 15.14C67.5511 14.22 68.5845 13.4933 69.7978 12.96C71.0245 12.4267 72.4045 12.16 73.9378 12.16C75.2311 12.16 76.4245 12.3667 77.5178 12.78C78.6111 13.1933 79.5511 13.8 80.3378 14.6C81.1245 15.3867 81.7378 16.36 82.1778 17.52C82.6311 18.6667 82.8578 19.98 82.8578 21.46C82.8578 22.2067 82.7778 22.7133 82.6178 22.98C82.4578 23.2333 82.1511 23.36 81.6978 23.36H68.9978ZM91.505 27.68C92.065 28.36 92.6717 28.84 93.325 29.12C93.9917 29.4 94.6917 29.54 95.425 29.54C96.185 29.54 96.865 29.4067 97.465 29.14C98.0783 28.86 98.5983 28.4333 99.025 27.86C99.4517 27.2733 99.7783 26.5333 100.005 25.64C100.232 24.7333 100.345 23.6533 100.345 22.4C100.345 20.1467 99.9717 18.52 99.225 17.52C98.4783 16.5067 97.405 16 96.005 16C95.0583 16 94.2317 16.22 93.525 16.66C92.8183 17.0867 92.145 17.6933 91.505 18.48V27.68ZM91.505 15C92.3317 14.1333 93.245 13.4467 94.245 12.94C95.2583 12.42 96.4117 12.16 97.705 12.16C98.8917 12.16 99.9583 12.3933 100.905 12.86C101.865 13.3267 102.678 14 103.345 14.88C104.025 15.7467 104.545 16.8 104.905 18.04C105.265 19.28 105.445 20.6733 105.445 22.22C105.445 23.8867 105.238 25.4 104.825 26.76C104.412 28.12 103.818 29.2867 103.045 30.26C102.285 31.22 101.365 31.9667 100.285 32.5C99.205 33.0333 98.005 33.3 96.685 33.3C96.045 33.3 95.465 33.2333 94.945 33.1C94.425 32.98 93.945 32.8067 93.505 32.58C93.065 32.3533 92.6583 32.08 92.285 31.76C91.925 31.4267 91.5783 31.06 91.245 30.66L91.025 32.04C90.945 32.3867 90.805 32.6333 90.605 32.78C90.4183 32.9267 90.1583 33 89.825 33H86.565V3.28H91.505V15ZM115.827 33.32C114.04 33.32 112.667 32.82 111.707 31.82C110.76 30.8067 110.287 29.4133 110.287 27.64V16.18H108.187C107.92 16.18 107.694 16.0933 107.507 15.92C107.32 15.7467 107.227 15.4867 107.227 15.14V13.18L110.527 12.64L111.567 7.04C111.634 6.77333 111.76 6.56666 111.947 6.42C112.134 6.27333 112.374 6.2 112.667 6.2H115.227V12.66H120.707V16.18H115.227V27.3C115.227 27.94 115.38 28.44 115.687 28.8C116.007 29.16 116.44 29.34 116.987 29.34C117.294 29.34 117.547 29.3067 117.747 29.24C117.96 29.16 118.14 29.08 118.287 29C118.447 28.92 118.587 28.8467 118.707 28.78C118.827 28.7 118.947 28.66 119.067 28.66C119.214 28.66 119.334 28.7 119.427 28.78C119.52 28.8467 119.62 28.9533 119.727 29.1L121.207 31.5C120.487 32.1 119.66 32.5533 118.727 32.86C117.794 33.1667 116.827 33.32 115.827 33.32ZM128.53 16.04C129.17 14.8133 129.93 13.8533 130.81 13.16C131.69 12.4533 132.73 12.1 133.93 12.1C134.876 12.1 135.636 12.3067 136.21 12.72L135.89 16.42C135.823 16.66 135.723 16.8333 135.59 16.94C135.47 17.0333 135.303 17.08 135.09 17.08C134.89 17.08 134.59 17.0467 134.19 16.98C133.803 16.9133 133.423 16.88 133.05 16.88C132.503 16.88 132.016 16.96 131.59 17.12C131.163 17.28 130.776 17.5133 130.43 17.82C130.096 18.1133 129.796 18.4733 129.53 18.9C129.276 19.3267 129.036 19.8133 128.81 20.36V33H123.87V12.48H126.77C127.276 12.48 127.63 12.5733 127.83 12.76C128.03 12.9333 128.163 13.2533 128.23 13.72L128.53 16.04ZM156.472 12.48V33H153.452C152.798 33 152.385 32.7 152.212 32.1L151.872 30.46C151.032 31.3133 150.105 32.0067 149.092 32.54C148.078 33.06 146.885 33.32 145.512 33.32C144.392 33.32 143.398 33.1333 142.532 32.76C141.678 32.3733 140.958 31.8333 140.372 31.14C139.785 30.4467 139.338 29.6267 139.032 28.68C138.738 27.72 138.592 26.6667 138.592 25.52V12.48H143.532V25.52C143.532 26.7733 143.818 27.7467 144.392 28.44C144.978 29.12 145.852 29.46 147.012 29.46C147.865 29.46 148.665 29.2733 149.412 28.9C150.158 28.5133 150.865 27.9867 151.532 27.32V12.48H156.472ZM165.99 15C166.403 14.5867 166.836 14.2067 167.29 13.86C167.756 13.5 168.243 13.2 168.75 12.96C169.27 12.7067 169.823 12.5133 170.41 12.38C170.996 12.2333 171.636 12.16 172.33 12.16C173.45 12.16 174.443 12.3533 175.31 12.74C176.176 13.1133 176.896 13.6467 177.47 14.34C178.056 15.02 178.496 15.84 178.79 16.8C179.096 17.7467 179.25 18.7933 179.25 19.94V33H174.31V19.94C174.31 18.6867 174.023 17.72 173.45 17.04C172.876 16.3467 172.003 16 170.83 16C169.976 16 169.176 16.1933 168.43 16.58C167.683 16.9667 166.976 17.4933 166.31 18.16V33H161.37V12.48H164.39C165.03 12.48 165.45 12.78 165.65 13.38L165.99 15ZM188.888 3.28V20.3H189.808C190.141 20.3 190.401 20.26 190.588 20.18C190.788 20.0867 190.988 19.9067 191.188 19.64L196.288 13.34C196.501 13.06 196.734 12.8467 196.988 12.7C197.254 12.5533 197.594 12.48 198.008 12.48H202.528L196.148 20.1C195.694 20.7 195.201 21.16 194.668 21.48C194.948 21.68 195.194 21.9133 195.408 22.18C195.634 22.4467 195.848 22.7333 196.048 23.04L202.888 33H198.428C198.041 33 197.708 32.94 197.428 32.82C197.148 32.6867 196.914 32.4533 196.728 32.12L191.488 24.34C191.301 24.0333 191.108 23.8333 190.908 23.74C190.708 23.6467 190.408 23.6 190.008 23.6H188.888V33H183.948V3.28H188.888Z" fill="black"/>
</svg>
